<svg width="22" height="22" viewBox="0 0 22 22" fill="none" xmlns="http://www.w3.org/2000/svg">
<path fill-rule="evenodd" clip-rule="evenodd" d="M12.5593 11.5312L13.0476 11.1694C13.543 10.8007 13.8781 10.4977 14.0529 10.2604C14.351 9.87015 14.5 9.38871 14.5 8.81804C14.5 7.88752 14.1567 7.18546 13.468 6.71088C12.7803 6.23729 11.9159 6 10.8767 6C10.0841 6 9.41703 6.16669 8.8743 6.50007C8.31076 6.84239 7.89585 7.87758 7.67663 8.5511C7.57653 8.85864 7.81104 9.16025 8.13447 9.16025H9.06742C9.31367 9.16025 9.52241 8.98054 9.58364 8.74203C9.63936 8.525 9.7213 8.2716 9.82922 8.10716C10.0523 7.76888 10.4295 7.60022 10.963 7.60022C11.5047 7.60022 11.8768 7.7375 12.0824 8.01205C12.2859 8.28561 12.3877 8.58958 12.3877 8.92394C12.3877 9.21319 12.2962 9.47892 12.1132 9.72013C12.0115 9.86133 11.8778 9.99076 11.7134 10.1094L11.2107 10.484C10.7153 10.8526 10.4079 11.1792 10.2887 11.4625C10.2219 11.6207 10.161 12.0838 10.1202 12.4608C10.0889 12.751 10.3185 13 10.6105 13H11.4665C11.7319 13 11.9489 12.7924 11.9777 12.5286C11.9916 12.4019 12.0088 12.2832 12.0289 12.2224C12.1163 11.9597 12.2921 11.7292 12.5593 11.5312ZM10.5 16.5043C10.2238 16.5019 10.002 16.2761 10.0044 15.9999L10.0131 15C10.0155 14.7238 10.2413 14.502 10.5174 14.5044L11.5174 14.5131C11.7935 14.5155 12.0154 14.7413 12.013 15.0174L12.0043 16.0174C12.0019 16.2935 11.7761 16.5154 11.4999 16.513L10.5 16.5043ZM11 2C6.037 2 2 6.037 2 11C2 15.963 6.037 20 11 20C15.963 20 20 15.963 20 11C20 6.037 15.963 2 11 2ZM0 11C0 4.935 4.935 0 11 0C17.065 0 22 4.935 22 11C22 17.065 17.065 22 11 22C4.935 22 0 17.065 0 11Z" fill="white"/>
</svg>
