<svg width="12" height="13" viewBox="0 0 12 13" fill="none" xmlns="http://www.w3.org/2000/svg">
<path d="M10.8229 0.00161362C10.7588 0.00133611 10.6954 0.0137411 10.6362 0.0381131C10.577 0.0624851 10.5232 0.0983419 10.4779 0.143614L5.99987 4.62361L1.51987 0.143614C1.47477 0.0981103 1.42111 0.0619907 1.36198 0.0373411C1.30286 0.0126915 1.23943 0 1.17537 0C1.11131 0 1.04788 0.0126915 0.988749 0.0373411C0.92962 0.0619907 0.875959 0.0981103 0.830867 0.143614L0.142867 0.833613C0.051391 0.925126 3.33786e-06 1.04922 3.33786e-06 1.17861C3.33786e-06 1.30801 0.051391 1.4321 0.142867 1.52361L4.62187 6.00161L0.141867 10.4816C0.051001 10.573 0 10.6967 0 10.8256C0 10.9545 0.051001 11.0782 0.141867 11.1696L0.831867 11.8596C0.876959 11.9051 0.93062 11.9412 0.989749 11.9659C1.04888 11.9905 1.11231 12.0032 1.17637 12.0032C1.24043 12.0032 1.30386 11.9905 1.36299 11.9659C1.42211 11.9412 1.47577 11.9051 1.52087 11.8596L5.99987 7.37861L10.4779 11.8586C10.523 11.9043 10.5767 11.9405 10.6359 11.9653C10.6951 11.99 10.7587 12.0027 10.8229 12.0027C10.887 12.0027 10.9506 11.99 11.0098 11.9653C11.069 11.9405 11.1228 11.9043 11.1679 11.8586L11.8579 11.1686C11.949 11.0771 12.0002 10.9533 12.0002 10.8241C12.0002 10.695 11.949 10.5711 11.8579 10.4796L7.37687 6.00161L11.8569 1.52261C11.948 1.43114 11.9992 1.30726 11.9992 1.17811C11.9992 1.04897 11.948 0.925085 11.8569 0.833613L11.1669 0.143614C11.1217 0.0984615 11.0681 0.062674 11.009 0.0383058C10.95 0.0139375 10.8867 0.00146809 10.8229 0.00161362Z" fill="white"/>
</svg>
