<svg width="8" height="14" viewBox="0 0 8 14" fill="none" xmlns="http://www.w3.org/2000/svg">
<path d="M1.6165 0.128966L7.87668 6.68774C8.04111 6.85999 8.04111 7.14001 7.87668 7.31226L7.28051 7.93678L1.6165 13.871C1.53386 13.9567 1.42593 14 1.31799 14C1.21006 14 1.10213 13.9567 1.01949 13.871L0.423322 13.2465C0.258891 13.0734 0.258891 12.7942 0.423322 12.622L5.78967 7.00044L0.423323 1.37889C0.258892 1.20575 0.258892 0.926619 0.423323 0.754369L1.01949 0.128966C1.10213 0.0432828 1.21006 -5.93595e-07 1.318 -5.84159e-07C1.42593 -5.74723e-07 1.53386 0.0432828 1.6165 0.128966Z" fill="white"/>
</svg>
