<svg width="26" height="27" viewBox="0 0 26 27" fill="none" xmlns="http://www.w3.org/2000/svg">
<path d="M17.3593 18.2813C14.8664 20.7742 10.81 20.7742 8.31713 18.2813C5.82421 15.7884 5.82421 11.7321 8.31713 9.23918C10.81 6.74626 14.8664 6.74626 17.3593 9.23918C19.8522 11.7321 19.8522 15.7884 17.3593 18.2813ZM20.524 4.266L18.1912 6.59887C16.9668 5.68019 15.5644 5.11867 14.1177 4.9107L14.1177 1.61213C14.1168 1.25858 13.831 0.972849 13.4775 0.971945L12.1989 0.971945C11.8454 0.972849 11.5596 1.25858 11.5587 1.61213L11.5587 4.9107C10.112 5.11867 8.70956 5.68019 7.48525 6.59887L5.15238 4.266C4.90281 4.01644 4.49772 4.01644 4.24816 4.266L3.34395 5.17021C3.09438 5.41978 3.09438 5.82486 3.34395 6.07443L5.67682 8.4073C4.75814 9.63161 4.19662 11.034 3.98865 12.4808L0.690076 12.4808C0.336528 12.4817 0.0507961 12.7674 0.0498922 13.121V14.3995C0.0507961 14.7531 0.336528 15.0388 0.690076 15.0397L3.98865 15.0397C4.19662 16.4865 4.75814 17.8889 5.67682 19.1132L3.34395 21.4461C3.09438 21.6956 3.09438 22.1007 3.34395 22.3503L4.24816 23.2545C4.49772 23.5041 4.90281 23.5041 5.15238 23.2545L7.48525 20.9216C8.70956 21.8403 10.112 22.4018 11.5587 22.6098L11.5587 25.9084C11.5596 26.2619 11.8454 26.5477 12.1989 26.5486L13.4775 26.5486C13.831 26.5477 14.1168 26.2619 14.1177 25.9084L14.1177 22.6098C15.5644 22.4018 16.9668 21.8403 18.1912 20.9216L20.524 23.2545C20.7736 23.5041 21.1787 23.5041 21.4282 23.2545L22.3325 22.3503C22.582 22.1007 22.582 21.6956 22.3325 21.4461L19.9996 19.1132C20.9183 17.8889 21.4798 16.4865 21.6878 15.0397H24.9863C25.3399 15.0388 25.6256 14.7531 25.6265 14.3995V13.121C25.6256 12.7674 25.3399 12.4817 24.9863 12.4808H21.6878C21.4798 11.034 20.9183 9.63161 19.9996 8.4073L22.3325 6.07443C22.582 5.82486 22.582 5.41978 22.3325 5.17021L21.4282 4.266C21.1787 4.01644 20.7736 4.01644 20.524 4.266Z" fill="white"/>
</svg>
